<?xml version="1.0" encoding="utf-8"?>
<!-- Generator: Adobe Illustrator 23.0.2, SVG Export Plug-In . SVG Version: 6.00 Build 0)  -->
<svg version="1.1" id="Layer_1" xmlns="http://www.w3.org/2000/svg" xmlns:xlink="http://www.w3.org/1999/xlink" x="0px" y="0px"
	 viewBox="0 0 185 118" style="enable-background:new 0 0 185 118;" xml:space="preserve">
<style type="text/css">
	.st0{fill:#0083DB;}
</style>
<g>
	<g>
		<path class="st0" d="M16.73,88.52v-0.45c0,0,2.89-0.44,2.89-3.78v-4c0-4.23-2-6.23-6.23-6.23H2.49v31.15h11.43
			c4.23,0,6.23-2,6.23-6.23v-5.78C20.15,88.96,16.73,88.52,16.73,88.52z M7.38,78.51h4.67c2,0,2.67,0.67,2.67,2.67v2.67
			c0,2-0.67,2.67-2.67,2.67H7.38V78.51z M15.26,98.08c0,2-0.67,2.67-2.67,2.67h-5.2v-9.79h5.2c2,0,2.67,0.67,2.67,2.67V98.08z"/>
		<g>
			<polygon class="st0" points="29.21,100.75 41.01,100.75 41.01,105.2 24.32,105.2 24.32,74.06 29.21,74.06 			"/>
		</g>
		<g>
			<path class="st0" d="M61.78,99.42c0,4.23-2,6.23-6.23,6.23h-6.23c-4.23,0-6.23-2-6.23-6.23V74.06H48l-0.01,24.47
				c0,2,0.67,2.67,2.67,2.67h3.56c2,0,2.67-0.67,2.67-2.67l-0.01-24.47h4.91V99.42z"/>
		</g>
		<g>
			<polygon class="st0" points="70.84,87.18 80.19,87.18 80.19,91.63 70.84,91.63 70.84,100.75 83.3,100.75 83.3,105.2 65.95,105.2 
				65.95,74.06 82.88,74.06 82.88,78.51 70.84,78.51 			"/>
		</g>
		<g>
			<polygon class="st0" points="113.77,87.18 123.11,87.18 123.11,91.63 113.77,91.63 113.77,100.75 126.23,100.75 126.23,105.2 
				108.88,105.2 108.88,74.06 125.78,74.06 125.78,78.51 113.77,78.51 			"/>
		</g>
		<path class="st0" d="M141.69,74.06l-5.68,0l-7.67,31.15l5.15,0l1.57-7.34h7.56l1.57,7.34l5.15,0L141.69,74.06z M135.96,93.41
			l2.67-12.01h0.45l2.67,12.01H135.96z"/>
		<g>
			<polygon class="st0" points="162.02,105.2 156.81,86.07 156.36,86.07 156.38,105.2 151.47,105.2 151.47,74.06 157.84,74.06 
				163.71,95.64 164.15,95.64 170.01,74.06 176.39,74.06 176.39,105.2 171.48,105.2 171.49,86.07 171.05,86.07 165.85,105.2 			"/>
		</g>
		<path class="st0" d="M101.28,88.52v-0.45c0,0,2.89-0.44,2.89-3.78v-4c0-4.23-2-6.23-6.23-6.23h-10.9v31.15h11.43
			c4.23,0,6.23-2,6.23-6.23v-5.78C104.71,88.96,101.28,88.52,101.28,88.52z M91.94,78.51h4.67c2,0,2.67,0.67,2.67,2.67v2.67
			c0,2-0.67,2.67-2.67,2.67h-4.67V78.51z M99.81,98.08c0,2-0.67,2.67-2.67,2.67h-5.2v-9.79h5.2c2,0,2.67,0.67,2.67,2.67V98.08z"/>
		<g>
			<g>
				<path d="M64.88,117.68l2.31-6.01h0.86l2.46,6.01H69.6l-0.7-1.82h-2.51l-0.66,1.82H64.88z M66.61,115.21h2.04l-0.63-1.67
					c-0.19-0.51-0.33-0.92-0.43-1.25c-0.08,0.39-0.19,0.77-0.32,1.15L66.61,115.21z"/>
				<path d="M73.25,117.68v-6.01h0.82l3.16,4.72v-4.72h0.76v6.01h-0.82l-3.16-4.73v4.73H73.25z"/>
				<path d="M79.47,117.68v-6.01h4.35v0.71h-3.55v1.84h3.33v0.71h-3.33v2.05h3.69v0.71H79.47z"/>
				<path d="M85.16,117.68v-6.01h1.2l1.42,4.26c0.13,0.4,0.23,0.69,0.29,0.89c0.07-0.22,0.18-0.54,0.32-0.96l1.44-4.18h1.07v6.01
					h-0.77v-5.03l-1.75,5.03h-0.72l-1.74-5.12v5.12H85.16z"/>
				<path d="M92.32,117.68v-6.01h4.35v0.71h-3.55v1.84h3.33v0.71h-3.33v2.05h3.69v0.71H92.32z"/>
				<path d="M99.57,117.68v-5.3h-1.98v-0.71h4.77v0.71h-1.99v5.3H99.57z"/>
				<path d="M103.02,115.75l0.75-0.07c0.04,0.3,0.12,0.55,0.25,0.74c0.13,0.19,0.33,0.35,0.61,0.47s0.58,0.18,0.92,0.18
					c0.3,0,0.57-0.04,0.8-0.14c0.23-0.09,0.41-0.21,0.52-0.37s0.17-0.33,0.17-0.51c0-0.19-0.05-0.35-0.16-0.49s-0.29-0.26-0.54-0.35
					c-0.16-0.06-0.52-0.16-1.07-0.29c-0.55-0.13-0.94-0.26-1.16-0.38c-0.29-0.15-0.5-0.34-0.64-0.56s-0.21-0.47-0.21-0.75
					c0-0.3,0.09-0.59,0.26-0.85s0.42-0.46,0.75-0.6c0.33-0.14,0.7-0.21,1.1-0.21c0.45,0,0.84,0.07,1.18,0.21s0.6,0.35,0.79,0.63
					s0.28,0.59,0.29,0.95l-0.76,0.06c-0.04-0.38-0.18-0.67-0.42-0.86c-0.24-0.19-0.58-0.29-1.05-0.29c-0.48,0-0.83,0.09-1.05,0.26
					c-0.22,0.18-0.33,0.39-0.33,0.64c0,0.22,0.08,0.39,0.23,0.53c0.15,0.14,0.55,0.28,1.2,0.43c0.65,0.15,1.09,0.27,1.33,0.38
					c0.35,0.16,0.61,0.37,0.78,0.61c0.17,0.25,0.25,0.53,0.25,0.86c0,0.32-0.09,0.62-0.28,0.9s-0.45,0.5-0.79,0.66
					c-0.34,0.16-0.73,0.24-1.16,0.24c-0.54,0-1-0.08-1.37-0.24c-0.37-0.16-0.66-0.4-0.87-0.72S103.03,116.15,103.02,115.75z"/>
				<path d="M113.31,115.57l0.8,0.2c-0.17,0.65-0.47,1.15-0.9,1.5c-0.43,0.34-0.96,0.51-1.59,0.51c-0.65,0-1.18-0.13-1.58-0.4
					c-0.41-0.26-0.71-0.65-0.93-1.15c-0.21-0.5-0.32-1.04-0.32-1.61c0-0.63,0.12-1.17,0.36-1.64c0.24-0.47,0.58-0.82,1.02-1.06
					c0.44-0.24,0.93-0.36,1.46-0.36c0.6,0,1.11,0.15,1.52,0.46s0.7,0.74,0.86,1.29l-0.78,0.18c-0.14-0.44-0.34-0.76-0.61-0.96
					c-0.27-0.2-0.6-0.3-1-0.3c-0.46,0-0.85,0.11-1.16,0.33c-0.31,0.22-0.53,0.52-0.65,0.89c-0.13,0.37-0.19,0.76-0.19,1.16
					c0,0.51,0.07,0.96,0.22,1.34c0.15,0.38,0.38,0.67,0.7,0.86s0.66,0.28,1.02,0.28c0.45,0,0.82-0.13,1.13-0.39
					S113.2,116.08,113.31,115.57z"/>
				<path d="M115.24,117.68v-6.01h0.79v2.47h3.12v-2.47h0.8v6.01h-0.8v-2.83h-3.12v2.83H115.24z"/>
				<path d="M121.42,117.68v-6.01h4.35v0.71h-3.55v1.84h3.33v0.71h-3.33v2.05h3.69v0.71H121.42z"/>
				<path d="M127.1,117.68v-6.01h0.79v2.98l2.99-2.98h1.08l-2.52,2.44l2.63,3.58h-1.05l-2.14-3.04l-0.98,0.96v2.08H127.1z"/>
				<path d="M139.61,115.57l0.79,0.2c-0.17,0.65-0.47,1.15-0.9,1.5c-0.43,0.34-0.96,0.51-1.59,0.51c-0.65,0-1.17-0.13-1.58-0.4
					c-0.41-0.26-0.71-0.65-0.93-1.15c-0.21-0.5-0.32-1.04-0.32-1.61c0-0.63,0.12-1.17,0.36-1.64c0.24-0.47,0.58-0.82,1.02-1.06
					s0.93-0.36,1.46-0.36c0.6,0,1.11,0.15,1.52,0.46s0.7,0.74,0.86,1.29l-0.79,0.18c-0.14-0.44-0.34-0.76-0.61-0.96
					c-0.27-0.2-0.6-0.3-1-0.3c-0.46,0-0.85,0.11-1.16,0.33s-0.53,0.52-0.65,0.89c-0.12,0.37-0.19,0.76-0.19,1.16
					c0,0.51,0.08,0.96,0.22,1.34s0.38,0.67,0.7,0.86s0.65,0.28,1.02,0.28c0.45,0,0.82-0.13,1.13-0.39
					C139.3,116.46,139.5,116.08,139.61,115.57z"/>
				<path d="M141.27,114.75c0-1,0.27-1.78,0.8-2.34c0.54-0.57,1.23-0.85,2.08-0.85c0.55,0,1.05,0.13,1.5,0.4
					c0.45,0.26,0.79,0.63,1.02,1.11c0.23,0.47,0.35,1.01,0.35,1.61c0,0.61-0.12,1.16-0.37,1.64c-0.25,0.48-0.6,0.85-1.05,1.09
					c-0.45,0.25-0.94,0.37-1.46,0.37c-0.57,0-1.07-0.14-1.52-0.41s-0.78-0.65-1.01-1.12C141.39,115.78,141.27,115.28,141.27,114.75z
					 M142.09,114.77c0,0.72,0.19,1.29,0.58,1.71c0.39,0.42,0.88,0.63,1.47,0.63c0.6,0,1.09-0.21,1.48-0.63s0.58-1.02,0.58-1.79
					c0-0.49-0.08-0.92-0.25-1.28c-0.17-0.37-0.41-0.65-0.73-0.85c-0.32-0.2-0.68-0.3-1.07-0.3c-0.56,0-1.05,0.19-1.46,0.58
					C142.3,113.21,142.09,113.86,142.09,114.77z"/>
				<path d="M148.15,117.68v-6.01h1.2l1.42,4.26c0.13,0.4,0.23,0.69,0.29,0.89c0.07-0.22,0.17-0.54,0.32-0.96l1.44-4.18h1.07v6.01
					h-0.77v-5.03l-1.75,5.03h-0.72l-1.74-5.12v5.12H148.15z"/>
				<path d="M155.3,117.68v-6.01h2.27c0.4,0,0.7,0.02,0.91,0.06c0.29,0.05,0.54,0.14,0.74,0.28s0.36,0.33,0.48,0.58
					c0.12,0.25,0.18,0.52,0.18,0.82c0,0.51-0.16,0.94-0.49,1.3c-0.33,0.35-0.91,0.53-1.76,0.53h-1.54v2.44H155.3z M156.09,114.53
					h1.55c0.51,0,0.88-0.1,1.1-0.29c0.21-0.19,0.32-0.46,0.32-0.81c0-0.25-0.06-0.47-0.19-0.65s-0.29-0.3-0.5-0.35
					c-0.13-0.04-0.38-0.05-0.74-0.05h-1.54V114.53z"/>
				<path d="M159.74,117.68l2.31-6.01h0.86l2.46,6.01h-0.91l-0.7-1.82h-2.51l-0.66,1.82H159.74z M161.48,115.21h2.04l-0.63-1.67
					c-0.19-0.51-0.33-0.92-0.43-1.25c-0.08,0.39-0.19,0.77-0.32,1.15L161.48,115.21z"/>
				<path d="M166.12,117.68v-6.01h0.82l3.16,4.72v-4.72h0.76v6.01h-0.82l-3.16-4.73v4.73H166.12z"/>
				<path d="M174.02,117.68v-2.55l-2.32-3.47h0.97l1.19,1.81c0.22,0.34,0.42,0.68,0.61,1.02c0.18-0.31,0.4-0.67,0.66-1.06l1.17-1.77
					h0.93l-2.4,3.47v2.55H174.02z"/>
			</g>
		</g>
	</g>
	<g>
		<path class="st0" d="M81.34,41.42v-20.6h20.6v20.6H81.34z M81.34,0.22v10.3h30.9v41.21H71.04V0.22h-10.3v61.81h61.81V0.22H81.34z"
			/>
	</g>
	<g>
		<path class="st0" d="M178.84,75.89c0-0.33,0.08-0.63,0.24-0.92c0.16-0.28,0.39-0.51,0.67-0.67c0.28-0.16,0.59-0.25,0.92-0.25
			c0.33,0,0.63,0.08,0.92,0.24c0.28,0.16,0.51,0.39,0.67,0.67c0.16,0.29,0.25,0.59,0.25,0.92c0,0.32-0.08,0.62-0.24,0.9
			c-0.16,0.28-0.38,0.51-0.66,0.68c-0.29,0.17-0.6,0.25-0.94,0.25c-0.34,0-0.65-0.08-0.93-0.25c-0.29-0.17-0.51-0.39-0.67-0.67
			C178.92,76.52,178.84,76.21,178.84,75.89z M179.14,75.89c0,0.28,0.07,0.53,0.21,0.77c0.14,0.24,0.33,0.42,0.56,0.56
			s0.49,0.21,0.77,0.21c0.28,0,0.53-0.07,0.77-0.21c0.24-0.14,0.42-0.33,0.56-0.56c0.14-0.23,0.2-0.49,0.2-0.76
			c0-0.27-0.07-0.53-0.21-0.77c-0.14-0.24-0.33-0.43-0.56-0.56s-0.49-0.21-0.77-0.21c-0.27,0-0.53,0.07-0.76,0.2
			c-0.24,0.13-0.42,0.32-0.56,0.56C179.21,75.36,179.14,75.61,179.14,75.89z M181.42,75.46c0,0.28-0.12,0.47-0.37,0.57l0.58,0.97
			h-0.51l-0.47-0.84h-0.22v0.84h-0.46v-2.21h0.64c0.28,0,0.49,0.06,0.62,0.17C181.35,75.07,181.42,75.23,181.42,75.46z M180.42,75.8
			h0.17c0.12,0,0.21-0.03,0.27-0.08c0.06-0.06,0.09-0.14,0.09-0.24c0-0.12-0.03-0.2-0.09-0.25c-0.06-0.05-0.15-0.07-0.28-0.07h-0.16
			V75.8z"/>
	</g>
</g>
</svg>
