<?xml version="1.0" encoding="utf-8"?>
<!-- Generator: Adobe Illustrator 23.0.2, SVG Export Plug-In . SVG Version: 6.00 Build 0)  -->
<svg version="1.1" id="Layer_1" xmlns="http://www.w3.org/2000/svg" xmlns:xlink="http://www.w3.org/1999/xlink" x="0px" y="0px"
	 viewBox="0 0 250 52" style="enable-background:new 0 0 250 52;" xml:space="preserve">
<style type="text/css">
	.st0{fill:#0083DB;}
</style>
<g>
	<path class="st0" d="M79.27,22.73v-0.45c0,0,2.89-0.44,2.89-3.78v-4c0-4.23-2-6.23-6.23-6.23h-10.9v31.15h11.43
		c4.23,0,6.23-2,6.23-6.23V27.4C82.69,23.18,79.27,22.73,79.27,22.73z M69.92,12.72h4.67c2,0,2.67,0.67,2.67,2.67v2.67
		c0,2-0.67,2.67-2.67,2.67h-4.67V12.72z M77.79,32.3c0,2-0.67,2.67-2.67,2.67h-5.2v-9.79h5.2c2,0,2.67,0.67,2.67,2.67V32.3z"/>
	<g>
		<polygon class="st0" points="91.75,34.97 103.54,34.97 103.54,39.42 86.86,39.42 86.86,8.27 91.75,8.27 		"/>
	</g>
	<g>
		<path class="st0" d="M124.32,33.63c0,4.23-2,6.23-6.23,6.23h-6.23c-4.23,0-6.23-2-6.23-6.23V8.27h4.91l-0.01,24.47
			c0,2,0.67,2.67,2.67,2.67h3.56c2,0,2.67-0.67,2.67-2.67l-0.01-24.47h4.91V33.63z"/>
	</g>
	<g>
		<polygon class="st0" points="133.38,21.4 142.72,21.4 142.72,25.85 133.38,25.85 133.38,34.97 145.84,34.97 145.84,39.42 
			128.49,39.42 128.49,8.27 145.42,8.27 145.42,12.72 133.38,12.72 		"/>
	</g>
	<g>
		<polygon class="st0" points="176.31,21.4 185.65,21.4 185.65,25.85 176.31,25.85 176.31,34.97 188.77,34.97 188.77,39.42 
			171.42,39.42 171.42,8.27 188.32,8.27 188.32,12.72 176.31,12.72 		"/>
	</g>
	<path class="st0" d="M204.23,8.27l-5.68,0l-7.67,31.15l5.15,0l1.57-7.34h7.56l1.57,7.34l5.15,0L204.23,8.27z M198.5,27.63
		l2.67-12.01h0.45l2.67,12.01H198.5z"/>
	<g>
		<polygon class="st0" points="224.56,39.42 219.35,20.28 218.9,20.28 218.91,39.42 214.01,39.42 214.01,8.27 220.38,8.27 
			226.24,29.85 226.69,29.85 232.55,8.27 238.93,8.27 238.93,39.42 234.02,39.42 234.03,20.28 233.59,20.28 228.39,39.42 		"/>
	</g>
	<path class="st0" d="M163.82,22.73v-0.45c0,0,2.89-0.44,2.89-3.78v-4c0-4.23-2-6.23-6.23-6.23h-10.9v31.15h11.43
		c4.23,0,6.23-2,6.23-6.23V27.4C167.24,23.18,163.82,22.73,163.82,22.73z M154.48,12.72h4.67c2,0,2.67,0.67,2.67,2.67v2.67
		c0,2-0.67,2.67-2.67,2.67h-4.67V12.72z M162.35,32.3c0,2-0.67,2.67-2.67,2.67h-5.2v-9.79h5.2c2,0,2.67,0.67,2.67,2.67V32.3z"/>
	<path class="st0" d="M20.78,31.77V15.88h15.88v15.88H20.78z M20.78,0v7.94H44.6v31.76H12.84V0H4.9v47.65h47.65V0H20.78z"/>
	<g>
		<path d="M127.17,51.9l2.31-6.01h0.86l2.46,6.01h-0.91l-0.7-1.82h-2.51l-0.66,1.82H127.17z M128.9,49.43h2.04l-0.63-1.67
			c-0.19-0.51-0.33-0.92-0.43-1.25c-0.08,0.39-0.18,0.77-0.32,1.15L128.9,49.43z"/>
		<path d="M135.54,51.9v-6.01h0.82l3.16,4.72v-4.72h0.76v6.01h-0.82l-3.16-4.73v4.73H135.54z"/>
		<path d="M141.76,51.9v-6.01h4.35v0.71h-3.55v1.84h3.33v0.71h-3.33v2.05h3.69v0.71H141.76z"/>
		<path d="M147.45,51.9v-6.01h1.2l1.42,4.26c0.13,0.4,0.23,0.69,0.29,0.89c0.07-0.22,0.17-0.54,0.32-0.96l1.44-4.18h1.07v6.01h-0.77
			v-5.03l-1.75,5.03h-0.72l-1.74-5.12v5.12H147.45z"/>
		<path d="M154.61,51.9v-6.01h4.35v0.71h-3.55v1.84h3.33v0.71h-3.33v2.05h3.69v0.71H154.61z"/>
		<path d="M161.85,51.9v-5.3h-1.98v-0.71h4.77v0.71h-1.99v5.3H161.85z"/>
		<path d="M165.31,49.96l0.75-0.07c0.04,0.3,0.12,0.55,0.25,0.74c0.13,0.19,0.33,0.35,0.61,0.47s0.58,0.18,0.92,0.18
			c0.3,0,0.57-0.04,0.8-0.14s0.41-0.21,0.52-0.37s0.17-0.33,0.17-0.51c0-0.19-0.05-0.35-0.16-0.49c-0.11-0.14-0.29-0.26-0.54-0.35
			c-0.16-0.06-0.52-0.16-1.07-0.29c-0.55-0.13-0.94-0.26-1.16-0.38c-0.29-0.15-0.5-0.34-0.64-0.56c-0.14-0.22-0.21-0.47-0.21-0.75
			c0-0.3,0.09-0.59,0.26-0.85c0.17-0.26,0.42-0.46,0.75-0.6s0.7-0.21,1.1-0.21c0.45,0,0.84,0.07,1.18,0.22
			c0.34,0.14,0.6,0.35,0.79,0.63c0.18,0.28,0.28,0.59,0.29,0.95l-0.76,0.06c-0.04-0.38-0.18-0.67-0.42-0.86
			c-0.24-0.19-0.58-0.29-1.05-0.29c-0.48,0-0.83,0.09-1.05,0.26s-0.33,0.39-0.33,0.64c0,0.22,0.08,0.39,0.23,0.53
			c0.15,0.14,0.55,0.28,1.2,0.43c0.65,0.15,1.09,0.27,1.33,0.38c0.35,0.16,0.61,0.37,0.78,0.61c0.17,0.25,0.25,0.53,0.25,0.85
			c0,0.32-0.09,0.62-0.28,0.9c-0.18,0.28-0.45,0.5-0.79,0.66c-0.34,0.16-0.73,0.24-1.16,0.24c-0.54,0-1-0.08-1.37-0.24
			c-0.37-0.16-0.66-0.4-0.87-0.72C165.43,50.73,165.32,50.37,165.31,49.96z"/>
		<path d="M175.6,49.79l0.8,0.2c-0.17,0.65-0.47,1.15-0.9,1.5c-0.43,0.34-0.96,0.51-1.59,0.51c-0.65,0-1.17-0.13-1.58-0.4
			c-0.41-0.26-0.71-0.65-0.93-1.15c-0.21-0.5-0.32-1.04-0.32-1.61c0-0.63,0.12-1.17,0.36-1.64c0.24-0.47,0.58-0.82,1.02-1.06
			c0.44-0.24,0.93-0.36,1.46-0.36c0.6,0,1.11,0.15,1.52,0.46c0.41,0.31,0.7,0.74,0.86,1.29l-0.78,0.18
			c-0.14-0.44-0.34-0.76-0.61-0.96c-0.27-0.2-0.6-0.3-1-0.3c-0.46,0-0.85,0.11-1.16,0.33c-0.31,0.22-0.53,0.52-0.65,0.89
			c-0.13,0.37-0.19,0.76-0.19,1.15c0,0.51,0.08,0.96,0.22,1.34c0.15,0.38,0.38,0.67,0.7,0.85s0.66,0.28,1.02,0.28
			c0.45,0,0.82-0.13,1.13-0.39C175.28,50.68,175.49,50.29,175.6,49.79z"/>
		<path d="M177.53,51.9v-6.01h0.8v2.47h3.12v-2.47h0.8v6.01h-0.8v-2.83h-3.12v2.83H177.53z"/>
		<path d="M183.71,51.9v-6.01h4.35v0.71h-3.55v1.84h3.33v0.71h-3.33v2.05h3.69v0.71H183.71z"/>
		<path d="M189.39,51.9v-6.01h0.8v2.98l2.99-2.98h1.08l-2.52,2.44l2.63,3.58h-1.05l-2.14-3.04l-0.98,0.96v2.08H189.39z"/>
		<path d="M201.9,49.79l0.8,0.2c-0.17,0.65-0.47,1.15-0.9,1.5c-0.43,0.34-0.96,0.51-1.59,0.51c-0.65,0-1.17-0.13-1.58-0.4
			c-0.41-0.26-0.71-0.65-0.93-1.15c-0.21-0.5-0.32-1.04-0.32-1.61c0-0.63,0.12-1.17,0.36-1.64c0.24-0.47,0.58-0.82,1.02-1.06
			c0.44-0.24,0.93-0.36,1.46-0.36c0.6,0,1.11,0.15,1.52,0.46c0.41,0.31,0.7,0.74,0.86,1.29l-0.78,0.18
			c-0.14-0.44-0.34-0.76-0.61-0.96c-0.27-0.2-0.6-0.3-1-0.3c-0.46,0-0.85,0.11-1.16,0.33c-0.31,0.22-0.53,0.52-0.65,0.89
			c-0.13,0.37-0.19,0.76-0.19,1.15c0,0.51,0.08,0.96,0.22,1.34c0.15,0.38,0.38,0.67,0.7,0.85s0.66,0.28,1.02,0.28
			c0.45,0,0.82-0.13,1.13-0.39C201.58,50.68,201.79,50.29,201.9,49.79z"/>
		<path d="M203.56,48.97c0-1,0.27-1.78,0.8-2.34c0.54-0.56,1.23-0.85,2.08-0.85c0.56,0,1.06,0.13,1.5,0.4
			c0.45,0.27,0.79,0.64,1.02,1.11c0.23,0.47,0.35,1.01,0.35,1.61c0,0.61-0.12,1.16-0.37,1.64c-0.25,0.48-0.59,0.85-1.05,1.09
			S206.96,52,206.44,52c-0.57,0-1.07-0.14-1.52-0.41s-0.78-0.65-1.01-1.12C203.68,50,203.56,49.5,203.56,48.97z M204.38,48.98
			c0,0.72,0.19,1.3,0.58,1.71s0.88,0.63,1.47,0.63c0.6,0,1.09-0.21,1.48-0.63s0.58-1.02,0.58-1.79c0-0.49-0.08-0.92-0.25-1.28
			c-0.17-0.36-0.41-0.65-0.73-0.85c-0.32-0.2-0.68-0.3-1.07-0.3c-0.56,0-1.05,0.19-1.45,0.58
			C204.58,47.43,204.38,48.07,204.38,48.98z"/>
		<path d="M210.44,51.9v-6.01h1.2l1.42,4.26c0.13,0.4,0.23,0.69,0.29,0.89c0.07-0.22,0.17-0.54,0.32-0.96l1.44-4.18h1.07v6.01h-0.77
			v-5.03l-1.75,5.03h-0.72l-1.74-5.12v5.12H210.44z"/>
		<path d="M217.59,51.9v-6.01h2.27c0.4,0,0.7,0.02,0.92,0.06c0.29,0.05,0.54,0.14,0.74,0.28c0.2,0.14,0.36,0.33,0.48,0.58
			c0.12,0.25,0.18,0.52,0.18,0.82c0,0.51-0.16,0.94-0.49,1.3c-0.33,0.35-0.91,0.53-1.76,0.53h-1.54v2.44H217.59z M218.38,48.74h1.55
			c0.51,0,0.88-0.1,1.1-0.29c0.22-0.19,0.32-0.46,0.32-0.81c0-0.25-0.06-0.47-0.19-0.65c-0.13-0.18-0.29-0.3-0.5-0.35
			c-0.13-0.04-0.38-0.05-0.74-0.05h-1.54V48.74z"/>
		<path d="M222.03,51.9l2.31-6.01h0.86l2.46,6.01h-0.91l-0.7-1.82h-2.51l-0.66,1.82H222.03z M223.77,49.43h2.04l-0.63-1.67
			c-0.19-0.51-0.33-0.92-0.43-1.25c-0.08,0.39-0.18,0.77-0.32,1.15L223.77,49.43z"/>
		<path d="M228.41,51.9v-6.01h0.82l3.16,4.72v-4.72h0.76v6.01h-0.82l-3.16-4.73v4.73H228.41z"/>
		<path d="M236.31,51.9v-2.55l-2.32-3.47h0.97l1.19,1.81c0.22,0.34,0.42,0.68,0.61,1.02c0.18-0.31,0.4-0.67,0.66-1.06l1.17-1.77
			h0.93l-2.4,3.47v2.55H236.31z"/>
	</g>
	<g>
		<path class="st0" d="M241.43,10.09c0-0.33,0.08-0.63,0.24-0.92s0.39-0.51,0.67-0.67c0.28-0.16,0.59-0.25,0.92-0.25
			c0.33,0,0.63,0.08,0.92,0.24c0.28,0.16,0.51,0.39,0.67,0.67c0.16,0.28,0.25,0.59,0.25,0.92c0,0.32-0.08,0.62-0.24,0.9
			c-0.16,0.28-0.38,0.51-0.66,0.68c-0.29,0.17-0.6,0.25-0.94,0.25c-0.34,0-0.65-0.08-0.93-0.25c-0.29-0.17-0.51-0.39-0.67-0.67
			C241.51,10.71,241.43,10.41,241.43,10.09z M241.73,10.09c0,0.28,0.07,0.53,0.21,0.77c0.14,0.24,0.33,0.42,0.56,0.56
			s0.49,0.21,0.77,0.21c0.28,0,0.53-0.07,0.77-0.21c0.24-0.14,0.42-0.33,0.56-0.56c0.14-0.23,0.2-0.49,0.2-0.77
			c0-0.27-0.07-0.53-0.21-0.77c-0.14-0.24-0.33-0.43-0.56-0.56s-0.49-0.21-0.77-0.21c-0.27,0-0.53,0.07-0.76,0.2
			s-0.42,0.32-0.56,0.56C241.8,9.55,241.73,9.81,241.73,10.09z M244.01,9.65c0,0.28-0.12,0.47-0.37,0.57l0.58,0.97h-0.51l-0.47-0.84
			h-0.22v0.84h-0.46v-2.2h0.64c0.28,0,0.49,0.06,0.62,0.17S244.01,9.43,244.01,9.65z M243.01,9.99h0.17c0.12,0,0.21-0.03,0.27-0.09
			c0.06-0.06,0.09-0.14,0.09-0.24c0-0.12-0.03-0.2-0.09-0.25c-0.06-0.05-0.15-0.07-0.28-0.07h-0.16V9.99z"/>
	</g>
</g>
</svg>
